<svg width="40" height="40" viewBox="0 0 40 40" fill="none" xmlns="http://www.w3.org/2000/svg">
<path d="M10.5946 18.1788L10.5951 18.1791L18.9503 22.1878L23.7327 30.0238C23.7329 30.024 23.733 30.0243 23.7331 30.0245C23.857 30.2309 24.0323 30.4015 24.2419 30.5197C24.4496 30.6368 24.684 30.6985 24.9224 30.6987C24.998 30.7036 25.0738 30.7034 25.1494 30.6982L25.1588 30.6976L25.1682 30.696C25.449 30.6498 25.7087 30.5185 25.9124 30.3198C26.1155 30.1217 26.253 29.8661 26.3064 29.5875L30.1691 11.4982L30.1692 11.4981C30.2205 11.2569 30.2075 11.0065 30.1315 10.7719C30.0554 10.5373 29.919 10.3269 29.7359 10.1617C29.5527 9.99655 29.3294 9.88249 29.0882 9.83099C28.847 9.77949 28.5966 9.79235 28.3619 9.86829L28.3618 9.86833L10.7697 15.5739L10.7691 15.5741C10.5025 15.6615 10.2681 15.8266 10.096 16.0481C9.9239 16.2697 9.82191 16.5376 9.80315 16.8176C9.78439 17.0975 9.84971 17.3766 9.99072 17.6192C10.1317 17.8617 10.342 18.0566 10.5946 18.1788ZM28.5713 11.4484L24.8587 28.8578L20.0811 21.0279L20.0503 20.9773L19.9968 20.9517L11.6317 16.9423L28.5713 11.4484Z" fill="#3D3D3D" stroke="#3D3D3D" stroke-width="0.4"/>
<path d="M18.9179 21.1239L18.7839 21.2724L18.9325 21.4063L19.801 22.1897L19.9495 22.3237L20.0834 22.1752L24.6931 17.0646L24.827 16.9161L24.6785 16.7822L23.81 15.9988L23.6615 15.8648L23.5275 16.0133L18.9179 21.1239Z" fill="#3D3D3D" stroke="#3D3D3D" stroke-width="0.4"/>
</svg>
